<?xml version="1.0" encoding="UTF-8" standalone="no"?>
<!-- Created with Inkscape (http://www.inkscape.org/) -->

<svg
   xmlns:dc="http://purl.org/dc/elements/1.1/"
   xmlns:cc="http://creativecommons.org/ns#"
   xmlns:rdf="http://www.w3.org/1999/02/22-rdf-syntax-ns#"
   xmlns:svg="http://www.w3.org/2000/svg"
   xmlns="http://www.w3.org/2000/svg"
   xmlns:sodipodi="http://sodipodi.sourceforge.net/DTD/sodipodi-0.dtd"
   xmlns:inkscape="http://www.inkscape.org/namespaces/inkscape"
   version="1.1"
   id="svg2"
   xml:space="preserve"
   width="74.5625"
   height="83.083328"
   viewBox="0 0 74.5625 83.083328"
   sodipodi:docname="favicon.svg"
   inkscape:version="0.92.4 (5da689c313, 2019-01-14)"><metadata
     id="metadata8"><rdf:RDF><cc:Work
         rdf:about=""><dc:format>image/svg+xml</dc:format><dc:type
           rdf:resource="http://purl.org/dc/dcmitype/StillImage" /><dc:title></dc:title></cc:Work></rdf:RDF></metadata><defs
     id="defs6"><clipPath
       clipPathUnits="userSpaceOnUse"
       id="clipPath18"><path
         d="M 0,500 H 500 V 0 H 0 Z"
         id="path16"
         inkscape:connector-curvature="0" /></clipPath><clipPath
       clipPathUnits="userSpaceOnUse"
       id="clipPath26"><path
         d="M 0,500 H 500 V 0 H 0 Z"
         id="path24"
         inkscape:connector-curvature="0" /></clipPath><clipPath
       clipPathUnits="userSpaceOnUse"
       id="clipPath30"><path
         d="M 0,500 H 500 V 0 H 0 Z"
         id="path28"
         inkscape:connector-curvature="0" /></clipPath><mask
       maskUnits="userSpaceOnUse"
       x="0"
       y="0"
       width="1"
       height="1"
       id="mask32"><g
         id="g50"><g
           clip-path="url(#clipPath26)"
           id="g48"><path
             d="M 0,500 H 500 V 0 H 0 Z"
             style="fill:#000000;fill-opacity:1;fill-rule:nonzero;stroke:none"
             id="path34"
             inkscape:connector-curvature="0" /><g
             id="g46"><g
               id="g36" /><g
               id="g44"><g
                 clip-path="url(#clipPath30)"
                 id="g42"><g
                   transform="translate(36,500)"
                   id="g40"><path
                     d="m 0,0 h 428 c 19.882,0 36,-16.118 36,-36 v -428 c 0,-19.883 -16.118,-36 -36,-36 H 0 c -19.883,0 -36,16.117 -36,36 v 428 c 0,19.882 16.117,36 36,36"
                     style="fill:#ffffff;fill-opacity:1;fill-rule:nonzero;stroke:none"
                     id="path38"
                     inkscape:connector-curvature="0" /></g></g></g></g></g></g></mask><clipPath
       clipPathUnits="userSpaceOnUse"
       id="clipPath58"><path
         d="M 0,500 H 500 V 0 H 0 Z"
         id="path56"
         inkscape:connector-curvature="0" /></clipPath><linearGradient
       x1="0"
       y1="0"
       x2="1"
       y2="0"
       gradientUnits="userSpaceOnUse"
       gradientTransform="matrix(-1.53e-5,422.73157,422.73157,1.53e-5,249.50049,45.898437)"
       spreadMethod="pad"
       id="linearGradient68"><stop
         style="stop-opacity:1;stop-color:#6cccf7"
         offset="0"
         id="stop64" /><stop
         style="stop-opacity:1;stop-color:#41bdf5"
         offset="1"
         id="stop66" /></linearGradient><clipPath
       clipPathUnits="userSpaceOnUse"
       id="clipPath90"><path
         d="M 73.1201,416.38 H 427.881 V 103.62 H 73.1201 Z"
         id="path88"
         inkscape:connector-curvature="0" /></clipPath><clipPath
       clipPathUnits="userSpaceOnUse"
       id="clipPath94"><path
         d="M 73.1201,416.38 H 427.881 V 103.62 H 73.1201 Z"
         id="path92"
         inkscape:connector-curvature="0" /></clipPath><mask
       maskUnits="userSpaceOnUse"
       x="0"
       y="0"
       width="1"
       height="1"
       id="mask96"><g
         id="g114"><g
           clip-path="url(#clipPath90)"
           id="g112"><path
             d="M 73.12,416.38 H 427.881 V 103.62 H 73.12 Z"
             style="fill:#000000;fill-opacity:1;fill-rule:nonzero;stroke:none"
             id="path98"
             inkscape:connector-curvature="0" /><g
             id="g110"><g
               id="g100" /><g
               id="g108"><g
                 clip-path="url(#clipPath94)"
                 id="g106"><g
                   transform="translate(285.3535,256.4414)"
                   id="g104"><path
                     d="m 0,0 c -2.967,0 -5.371,2.4 -5.371,5.362 0,2.962 2.404,5.361 5.371,5.361 2.967,0 5.371,-2.399 5.371,-5.361 C 5.371,2.4 2.967,0 0,0 m -76.095,2.681 c -2.966,0 -5.371,2.401 -5.371,5.361 0,2.962 2.405,5.362 5.371,5.362 2.968,0 5.371,-2.4 5.371,-5.362 0,-2.96 -2.403,-5.361 -5.371,-5.361 m -34.019,33.064 c -2.965,0 -5.371,2.401 -5.371,5.361 0,2.962 2.406,5.363 5.371,5.363 2.968,0 5.372,-2.401 5.372,-5.363 0,-2.96 -2.404,-5.361 -5.372,-5.361 m 46.552,20.554 c -2.966,0 -5.371,2.4 -5.371,5.362 0,2.961 2.405,5.361 5.371,5.361 2.968,0 5.372,-2.4 5.372,-5.361 0,-2.962 -2.404,-5.362 -5.372,-5.362 m 57.297,0 c -2.968,0 -5.374,2.4 -5.374,5.362 0,2.961 2.406,5.361 5.374,5.361 2.964,0 5.369,-2.4 5.369,-5.361 0,-2.962 -2.405,-5.362 -5.369,-5.362 M 29.542,34.851 c -2.966,0 -5.371,2.401 -5.371,5.362 0,2.961 2.405,5.363 5.371,5.363 2.968,0 5.372,-2.402 5.372,-5.363 0,-2.961 -2.404,-5.362 -5.372,-5.362 M 59.086,0 c -2.967,0 -5.372,2.4 -5.372,5.362 0,2.962 2.405,5.361 5.372,5.361 2.966,0 5.371,-2.399 5.371,-5.361 C 64.457,2.4 62.052,0 59.086,0 M 34.02,-127.789 c -2.968,0 -5.374,2.398 -5.374,5.362 0,2.961 2.406,5.363 5.374,5.363 2.966,0 5.37,-2.402 5.37,-5.363 0,-2.964 -2.404,-5.362 -5.37,-5.362 m 23.275,42.893 c -2.967,0 -5.371,2.401 -5.371,5.363 0,2.961 2.404,5.361 5.371,5.361 2.966,0 5.371,-2.4 5.371,-5.361 0,-2.962 -2.405,-5.363 -5.371,-5.363 m -60.876,41.108 c -2.966,0 -5.371,2.399 -5.371,5.362 0,2.963 2.405,5.363 5.371,5.363 2.967,0 5.372,-2.4 5.372,-5.363 0,-2.963 -2.405,-5.362 -5.372,-5.362 m -111.904,6.255 c -2.965,0 -5.37,2.401 -5.37,5.362 0,2.961 2.405,5.361 5.37,5.361 2.967,0 5.371,-2.4 5.371,-5.361 0,-2.961 -2.404,-5.362 -5.371,-5.362 m 4.477,-44.68 c -2.966,0 -5.372,2.4 -5.372,5.36 0,2.959 2.406,5.362 5.372,5.362 2.966,0 5.371,-2.403 5.371,-5.362 0,-2.96 -2.405,-5.36 -5.371,-5.36 m 46.551,-6.257 c -2.966,0 -5.371,2.402 -5.371,5.361 0,2.963 2.405,5.363 5.371,5.363 2.967,0 5.372,-2.4 5.372,-5.363 0,-2.959 -2.405,-5.361 -5.372,-5.361 m -39.39,-40.213 c -2.966,0 -5.371,2.4 -5.371,5.361 0,2.963 2.405,5.362 5.371,5.362 2.968,0 5.372,-2.399 5.372,-5.362 0,-2.961 -2.404,-5.361 -5.372,-5.361 M 12.12,-0.417 c 0.839,1.75 1.31,3.709 1.31,5.779 0,7.403 -6.013,13.405 -13.43,13.405 -7.417,0 -13.428,-6.002 -13.428,-13.405 0,-7.403 6.011,-13.405 13.428,-13.405 2.073,0 4.036,0.469 5.789,1.307 L 25.065,-25.979 V -44.618 L 0.895,-68.746 v 17.677 c 5.216,1.841 8.954,6.806 8.954,12.643 0,7.403 -6.013,13.404 -13.43,13.404 -7.415,0 -13.428,-6.001 -13.428,-13.404 0,-5.837 3.736,-10.802 8.952,-12.643 v -26.614 l -22.381,-22.341 V 31.213 l 18.38,18.35 c 1.755,-0.838 3.717,-1.307 5.793,-1.307 7.414,0 13.426,6.001 13.426,13.405 0,7.402 -6.012,13.404 -13.426,13.404 -7.418,0 -13.429,-6.002 -13.429,-13.404 0,-2.07 0.469,-4.03 1.306,-5.779 L -34.914,39.383 -51.441,55.882 c 0.839,1.749 1.308,3.709 1.308,5.779 0,7.402 -6.012,13.404 -13.429,13.404 -7.416,0 -13.428,-6.002 -13.428,-13.404 0,-7.404 6.012,-13.405 13.428,-13.405 2.075,0 4.038,0.469 5.791,1.307 l 18.381,-18.35 v -93.704 l -32.228,32.173 V -4.6 c 5.216,1.842 8.952,6.806 8.952,12.642 0,7.404 -6.012,13.405 -13.429,13.405 -7.415,0 -13.428,-6.001 -13.428,-13.405 0,-5.836 3.736,-10.8 8.953,-12.642 v -16.783 l -25.067,25.022 v 24.827 c 5.215,1.84 8.952,6.804 8.952,12.64 0,7.404 -6.012,13.406 -13.429,13.406 -7.415,0 -13.428,-6.002 -13.428,-13.406 0,-5.836 3.737,-10.8 8.953,-12.64 v -28.53 l 27.688,-27.637 h -15.918 c -1.844,5.205 -6.819,8.935 -12.666,8.935 -7.415,0 -13.428,-6.002 -13.428,-13.405 0,-7.403 6.013,-13.403 13.428,-13.403 5.847,0 10.822,3.73 12.666,8.935 h 24.871 l 38.558,-38.49 v -66.894 l -20.59,20.552 v 25.722 c 5.215,1.84 8.952,6.805 8.952,12.64 0,7.405 -6.012,13.405 -13.429,13.405 -7.416,0 -13.428,-6 -13.428,-13.405 0,-5.835 3.736,-10.8 8.952,-12.64 v -16.784 l -29.956,29.902 c 0.839,1.749 1.309,3.709 1.309,5.778 0,7.402 -6.013,13.405 -13.428,13.405 -7.417,0 -13.429,-6.003 -13.429,-13.405 0,-7.401 6.012,-13.404 13.429,-13.404 2.072,0 4.036,0.468 5.788,1.307 l 29.957,-29.902 h -15.919 c -1.844,5.206 -6.818,8.936 -12.665,8.936 -7.416,0 -13.427,-6.003 -13.427,-13.406 0,-7.402 6.011,-13.404 13.427,-13.404 5.847,0 10.821,3.73 12.665,8.937 h 24.871 l 25.067,-25.022 h 12.661 l 25.961,25.915 h 23.977 c 1.844,-5.208 6.817,-8.937 12.665,-8.937 7.414,0 13.427,6.001 13.427,13.406 0,7.404 -6.013,13.404 -13.427,13.404 -5.848,0 -10.821,-3.729 -12.665,-8.937 H -6.33 l -24.108,-24.063 v 29.362 l 28.71,28.66 H 44.63 c 1.843,-5.207 6.817,-8.937 12.665,-8.937 7.418,0 13.429,6 13.429,13.405 0,7.403 -6.011,13.405 -13.429,13.405 -5.848,0 -10.822,-3.731 -12.665,-8.937 H 7.226 L 34.02,-48.32 v 22.341 l 19.276,19.243 c 1.753,-0.838 3.716,-1.307 5.79,-1.307 7.416,0 13.428,6.002 13.428,13.405 0,7.403 -6.012,13.405 -13.428,13.405 -7.417,0 -13.429,-6.002 -13.429,-13.405 0,-2.07 0.47,-4.029 1.308,-5.779 L 34.02,-13.343 v 40.915 c 5.214,1.84 8.952,6.804 8.952,12.641 0,7.403 -6.013,13.405 -13.43,13.405 -7.416,0 -13.429,-6.002 -13.429,-13.405 0,-5.837 3.738,-10.801 8.952,-12.641 V -13.343 Z M -172.779,-145.872 V -26.81 h -31.108 c -4.607,0 -8.341,3.735 -8.341,8.341 0,2.197 0.865,4.304 2.409,5.862 l 167.513,169.468 c 4.047,4.095 10.648,4.133 14.743,0.086 0.023,-0.022 0.045,-0.046 0.068,-0.068 l 87.474,-88.07 v 16.285 c 0,3.838 3.114,6.95 6.953,6.95 h 29.07 c 3.838,0 6.948,-3.112 6.948,-6.95 V 25.29 l 37.185,-37.919 c 3.225,-3.289 3.174,-8.569 -0.115,-11.793 -1.559,-1.531 -3.656,-2.388 -5.838,-2.388 H 102.95 v -119.062 c 0,-3.838 -3.11,-6.949 -6.948,-6.949 h -261.831 c -3.838,0 -6.95,3.111 -6.95,6.949"
                     style="fill:#ffffff;fill-opacity:1;fill-rule:nonzero;stroke:none"
                     id="path102"
                     inkscape:connector-curvature="0" /></g></g></g></g></g></g></mask><clipPath
       clipPathUnits="userSpaceOnUse"
       id="clipPath122"><path
         d="M 73.1201,416.38 H 427.881 V 103.62 H 73.1201 Z"
         id="path120"
         inkscape:connector-curvature="0" /></clipPath><linearGradient
       x1="0"
       y1="0"
       x2="1"
       y2="0"
       gradientUnits="userSpaceOnUse"
       gradientTransform="matrix(0,13.571045,13.571045,0,83.630371,402.81982)"
       spreadMethod="pad"
       id="linearGradient132"><stop
         style="stop-opacity:1;stop-color:#ffffff"
         offset="0"
         id="stop128" /><stop
         style="stop-opacity:1;stop-color:#d9d9d9"
         offset="1"
         id="stop130" /></linearGradient><linearGradient
       x1="0"
       y1="0"
       x2="1"
       y2="0"
       gradientUnits="userSpaceOnUse"
       gradientTransform="matrix(0,8.3658905,8.3658905,0,79.249512,109.62305)"
       spreadMethod="pad"
       id="linearGradient142"><stop
         style="stop-opacity:1;stop-color:#ffffff"
         offset="0"
         id="stop138" /><stop
         style="stop-opacity:1;stop-color:#d9d9d9"
         offset="1"
         id="stop140" /></linearGradient><linearGradient
       x1="0"
       y1="0"
       x2="1"
       y2="0"
       gradientUnits="userSpaceOnUse"
       gradientTransform="matrix(0,15.608048,15.608048,0,416.0293,400.78467)"
       spreadMethod="pad"
       id="linearGradient152"><stop
         style="stop-opacity:1;stop-color:#ffffff"
         offset="0"
         id="stop148" /><stop
         style="stop-opacity:1;stop-color:#d9d9d9"
         offset="1"
         id="stop150" /></linearGradient><linearGradient
       x1="0"
       y1="0"
       x2="1"
       y2="0"
       gradientUnits="userSpaceOnUse"
       gradientTransform="matrix(0,10.402328,10.402328,0,420.41016,111.08398)"
       spreadMethod="pad"
       id="linearGradient162"><stop
         style="stop-opacity:1;stop-color:#ffffff"
         offset="0"
         id="stop158" /><stop
         style="stop-opacity:1;stop-color:#d9d9d9"
         offset="1"
         id="stop160" /></linearGradient><linearGradient
       x1="0"
       y1="0"
       x2="1"
       y2="0"
       gradientUnits="userSpaceOnUse"
       gradientTransform="matrix(-1.53e-5,182.17932,182.17932,1.53e-5,250.5,234.34375)"
       spreadMethod="pad"
       id="linearGradient172"><stop
         style="stop-opacity:1;stop-color:#ffffff"
         offset="0"
         id="stop168" /><stop
         style="stop-opacity:1;stop-color:#d9d9d9"
         offset="1"
         id="stop170" /></linearGradient></defs><sodipodi:namedview
     pagecolor="#ffffff"
     bordercolor="#666666"
     borderopacity="1"
     objecttolerance="10"
     gridtolerance="10"
     guidetolerance="10"
     inkscape:pageopacity="0"
     inkscape:pageshadow="2"
     inkscape:window-width="1920"
     inkscape:window-height="1001"
     id="namedview4"
     showgrid="false"
     inkscape:zoom="0.90509668"
     inkscape:cx="-126.54849"
     inkscape:cy="229.16423"
     inkscape:window-x="-9"
     inkscape:window-y="-9"
     inkscape:window-maximized="1"
     inkscape:current-layer="g10"
     fit-margin-top="15"
     fit-margin-left="20"
     fit-margin-right="20"
     fit-margin-bottom="15"
     scale-x="1" /><g
     id="g10"
     inkscape:groupmode="layer"
     inkscape:label="logo-round"
     transform="matrix(1.3333333,0,0,-1.3333333,-254.32405,369.70857)"><text
   xml:space="preserve"
   style="font-style:normal;font-variant:normal;font-weight:normal;font-stretch:normal;font-size:18px;line-height:1.25;font-family:Roboto;-inkscape-font-specification:Roboto;letter-spacing:0px;word-spacing:0px;fill:#0f1626;fill-opacity:1;stroke:none;stroke-width:0.75"
   x="202.18835"
   y="-226.21893"
   id="text970"
   transform="scale(1,-1)"><tspan
     sodipodi:role="line"
     id="tspan968"
     x="202.18835"
     y="-226.21893"
     style="font-style:normal;font-variant:normal;font-weight:bold;font-stretch:normal;font-size:56px;font-family:Roboto;-inkscape-font-specification:'Roboto Bold';fill:#0f1626;fill-opacity:1;stroke-width:0.75">F</tspan></text>

</g></svg>