<?xml version="1.0" standalone="no"?>
<!DOCTYPE svg PUBLIC "-//W3C//DTD SVG 20010904//EN"
 "http://www.w3.org/TR/2001/REC-SVG-20010904/DTD/svg10.dtd">
<svg version="1.0" xmlns="http://www.w3.org/2000/svg"
 width="664.000000pt" height="664.000000pt" viewBox="0 0 664.000000 664.000000"
 preserveAspectRatio="xMidYMid meet">
<metadata>
Created by potrace 1.11, written by Peter Selinger 2001-2013
</metadata>
<g transform="translate(0.000000,664.000000) scale(0.100000,-0.100000)"
fill="#000000" stroke="none">
<path d="M2109 5528 c0 -13 -1 -992 -2 -2176 -1 -1429 1 -2152 8 -2153 15 0
1034 -1 1077 0 l38 1 2 922 3 922 893 0 892 0 1 25 c3 127 1 813 -4 817 -3 3
-406 5 -896 5 l-891 0 0 405 0 404 43 0 c23 0 452 1 952 1 l911 0 0 424 0 425
-1513 0 -1513 0 -1 -22z"/>
</g>
</svg>
