<?xml version="1.0" encoding="UTF-8" standalone="no"?>
<svg
   xmlns:dc="http://purl.org/dc/elements/1.1/"
   xmlns:cc="http://creativecommons.org/ns#"
   xmlns:rdf="http://www.w3.org/1999/02/22-rdf-syntax-ns#"
   xmlns:svg="http://www.w3.org/2000/svg"
   xmlns="http://www.w3.org/2000/svg"
   xmlns:sodipodi="http://sodipodi.sourceforge.net/DTD/sodipodi-0.dtd"
   xmlns:inkscape="http://www.inkscape.org/namespaces/inkscape"
   xml:space="preserve"
   enable-background="new 0 0 300 100"
   viewBox="0 0 300 100"
   height="100px"
   width="300px"
   y="0px"
   x="0px"
   id="Layer_1"
   version="1.1"
   sodipodi:docname="logo.svg"
   inkscape:version="0.92.4 (5da689c313, 2019-01-14)"><sodipodi:namedview
     pagecolor="#ffffff"
     bordercolor="#666666"
     borderopacity="1"
     objecttolerance="10"
     gridtolerance="10"
     guidetolerance="10"
     inkscape:pageopacity="0"
     inkscape:pageshadow="2"
     inkscape:window-width="1920"
     inkscape:window-height="1001"
     id="namedview14"
     showgrid="false"
     inkscape:zoom="1.59"
     inkscape:cx="150"
     inkscape:cy="50"
     inkscape:window-x="-9"
     inkscape:window-y="-9"
     inkscape:window-maximized="1"
     inkscape:current-layer="Layer_1" /><metadata
     id="metadata25"><rdf:RDF><cc:Work
         rdf:about=""><dc:format>image/svg+xml</dc:format><dc:type
           rdf:resource="http://purl.org/dc/dcmitype/StillImage" /><dc:title /></cc:Work></rdf:RDF></metadata><defs
     id="defs23" /><text
     xml:space="preserve"
     style="font-style:normal;font-variant:normal;font-weight:normal;font-stretch:normal;font-size:64px;line-height:1.25;font-family:Roboto;-inkscape-font-specification:'Roboto, Normal';font-variant-ligatures:normal;font-variant-caps:normal;font-variant-numeric:normal;font-feature-settings:normal;text-align:start;letter-spacing:0px;word-spacing:0px;writing-mode:lr-tb;text-anchor:start;fill:#000000;fill-opacity:1;stroke:none"
     x="116.98112"
     y="71.069183"
     id="text823"><tspan
       sodipodi:role="line"
       id="tspan821"
       x="116.98112"
       y="71.069183"
       style="font-style:normal;font-variant:normal;font-weight:normal;font-stretch:normal;font-size:64px;font-family:Roboto;-inkscape-font-specification:'Roboto, Normal';font-variant-ligatures:normal;font-variant-caps:normal;font-variant-numeric:normal;font-feature-settings:normal;text-align:start;writing-mode:lr-tb;text-anchor:start">Fisate</tspan></text>
<path
     inkscape:connector-curvature="0"
     d="m 59.010607,27.255346 -32.994698,27.17495 v 29.32961 a 2.8633466,2.8633466 0 0 0 2.863347,2.86335 l 20.054161,-0.0519 a 2.8633466,2.8633466 0 0 0 2.84903,-2.86335 v -17.12818 a 2.8633466,2.8633466 0 0 1 2.86335,-2.86334 h 11.45339 a 2.8633466,2.8633466 0 0 1 2.86334,2.86334 v 17.11566 a 2.8633466,2.8633466 0 0 0 2.86335,2.87229 l 20.047,0.0555 a 2.8633466,2.8633466 0 0 0 2.86335,-2.86335 v -29.3493 l -32.98754,-27.15526 a 2.1815122,2.1815122 0 0 0 -2.73808,0 z M 111.12889,45.725716 96.167897,33.393646 V 8.6060102 a 2.1475099,2.1475099 0 0 0 -2.14751,-2.14751 h -10.02171 a 2.1475099,2.1475099 0 0 0 -2.14751,2.14751 V 21.600236 L 65.828957,8.4181032 a 8.5900397,8.5900397 0 0 0 -10.91651,0 L 9.6125132,45.725716 a 2.1475099,2.1475099 0 0 0 -0.286335,3.02441 l 4.5634588,5.54774 a 2.1475099,2.1475099 0 0 0 3.026199,0.2917 L 59.010607,19.918019 a 2.1815122,2.1815122 0 0 1 2.73808,0 l 42.096563,34.671547 a 2.1475099,2.1475099 0 0 0 3.02441,-0.28633 l 4.56346,-5.54774 a 2.1475099,2.1475099 0 0 0 -0.30423,-3.02978 z"
     id="path2"
     style="stroke-width:0.17895916" /></svg>